<svg width="51" height="503" viewBox="0 0 51 503" fill="none" xmlns="http://www.w3.org/2000/svg">
<g clip-path="url(#clip0_1_715)">
<path d="M0.022727 493.706L0.0227271 494.406L15.0011 494.406L15.0011 493.706L0.022727 493.706Z" fill="#190206"/>
<path d="M0.0234595 488.888L0.0234595 489.588L15.0018 489.588L15.0018 488.888L0.0234595 488.888Z" fill="#190206"/>
<path d="M0.0241919 484.07L0.0241919 484.77L15.0025 484.77L15.0025 484.07L0.0241919 484.07Z" fill="#190206"/>
<path d="M0.0249243 479.253L0.0249243 479.952L15.0033 479.952L15.0033 479.253L0.0249243 479.253Z" fill="#190206"/>
<path d="M0.0259009 474.436L0.0259009 475.136L23.0397 475.135L23.0397 474.436L0.0259009 474.436Z" fill="#190206"/>
<path d="M0.0266333 469.617L0.0266333 470.317L15.005 470.317L15.005 469.617L0.0266333 469.617Z" fill="#190206"/>
<path d="M0.0273657 464.799L0.0273657 465.499L15.0057 465.499L15.0057 464.799L0.0273657 464.799Z" fill="#190206"/>
<path d="M0.0280981 459.982L0.0280982 460.681L15.0064 460.681L15.0064 459.982L0.0280981 459.982Z" fill="#190206"/>
<path d="M0.0288305 455.164L0.0288306 455.863L15.0072 455.863L15.0072 455.164L0.0288305 455.164Z" fill="#190206"/>
<path d="M0.0298071 449.487L0.0298071 450.886L27.613 450.886L27.613 449.487L0.0298071 449.487Z" fill="#190206"/>
<path d="M0.0217504 498.085L0.0217505 499.485L27.6049 499.485L27.6049 498.085L0.0217504 498.085Z" fill="#190206"/>
<path d="M50.7007 447.661L50.7003 450.119L33.5465 450.117L33.5462 451.775L31.4839 451.775L31.4846 447.658L50.7007 447.661Z" fill="#231F20"/>
<path d="M0.0307837 444.529L0.0307837 445.229L15.0091 445.229L15.0091 444.529L0.0307837 444.529Z" fill="#190206"/>
<path d="M0.0315161 439.711L0.0315161 440.411L15.0098 440.411L15.0098 439.711L0.0315161 439.711Z" fill="#190206"/>
<path d="M0.0322485 434.894L0.0322485 435.593L15.0106 435.593L15.0106 434.894L0.0322485 434.894Z" fill="#190206"/>
<path d="M0.0329809 430.076L0.032981 430.775L15.0113 430.775L15.0113 430.076L0.0329809 430.076Z" fill="#190206"/>
<path d="M0.0339575 425.259L0.0339575 425.958L23.0477 425.958L23.0477 425.259L0.0339575 425.259Z" fill="#190206"/>
<path d="M0.0346899 420.44L0.03469 421.14L15.013 421.14L15.013 420.44L0.0346899 420.44Z" fill="#190206"/>
<path d="M0.0354223 415.622L0.0354224 416.322L15.0138 416.322L15.0138 415.622L0.0354223 415.622Z" fill="#190206"/>
<path d="M0.0361548 410.805L0.0361548 411.504L15.0145 411.504L15.0145 410.805L0.0361548 410.805Z" fill="#190206"/>
<path d="M0.0368872 405.986L0.0368872 406.686L15.0152 406.686L15.0152 405.986L0.0368872 405.986Z" fill="#190206"/>
<path d="M0.0378637 400.31L0.0378638 401.709L27.621 401.709L27.621 400.31L0.0378637 400.31Z" fill="#190206"/>
<path d="M37.696 404.005C34.9961 404.035 33.2457 403.676 32.4484 402.931C31.6496 402.186 31.251 401.078 31.2512 399.606C31.2517 396.931 32.6783 395.594 35.529 395.594C36.5423 395.594 37.6497 395.772 38.8491 396.128C40.0485 396.483 41.5774 397.105 43.4339 397.993L48.359 400.363L48.3596 396.144L50.709 396.144L50.7076 404.393L44.0818 401.09C44.0003 401.021 43.825 400.93 43.5539 400.817C43.2829 400.703 43.0969 400.621 42.9976 400.573C41.2705 399.723 39.8725 399.118 38.8025 398.757C37.7343 398.396 36.728 398.215 35.7837 398.215C35.0713 398.215 34.5167 398.353 34.1199 398.631C33.723 398.909 33.5263 399.291 33.5262 399.777C33.5261 400.541 33.8839 401.016 34.6013 401.204C35.3189 401.394 36.3518 401.497 37.6964 401.518L37.696 404.005Z" fill="#231F20"/>
<path d="M0.0388403 395.352L0.0388403 396.052L15.0172 396.052L15.0172 395.352L0.0388403 395.352Z" fill="#190206"/>
<path d="M0.0395727 390.535L0.0395728 391.234L15.0179 391.234L15.0179 390.535L0.0395727 390.535Z" fill="#190206"/>
<path d="M0.0403052 385.717L0.0403052 386.416L15.0187 386.416L15.0187 385.717L0.0403052 385.717Z" fill="#190206"/>
<path d="M0.0410376 380.899L0.0410376 381.598L15.0194 381.598L15.0194 380.899L0.0410376 380.899Z" fill="#190206"/>
<path d="M0.0420141 376.082L0.0420142 376.781L23.0558 376.781L23.0558 376.082L0.0420141 376.082Z" fill="#190206"/>
<path d="M0.0427466 371.263L0.0427466 371.963L15.0211 371.963L15.0211 371.263L0.0427466 371.263Z" fill="#190206"/>
<path d="M0.043479 366.445L0.043479 367.145L15.0218 367.145L15.0218 366.445L0.043479 366.445Z" fill="#190206"/>
<path d="M0.0442114 361.628L0.0442114 362.327L15.0225 362.327L15.0225 361.628L0.0442114 361.628Z" fill="#190206"/>
<path d="M0.045188 356.81L0.045188 357.509L15.0235 357.509L15.0235 356.81L0.045188 356.81Z" fill="#190206"/>
<path d="M0.0459204 351.133L0.0459204 352.532L27.6291 352.532L27.6291 351.133L0.0459204 351.133Z" fill="#190206"/>
<path d="M40.5898 348.37C40.9815 347.655 41.4847 347.146 42.0961 346.843C42.7091 346.541 43.7403 346.39 45.1861 346.39C47.2163 346.39 48.6745 346.739 49.5636 347.434C50.4529 348.131 50.8974 349.278 50.8972 350.878C50.8969 352.379 50.4876 353.412 49.6689 353.979C48.8503 354.547 47.5428 354.841 45.7463 354.86L45.7467 352.461C47.6848 352.442 48.6541 351.872 48.6543 350.751C48.6544 350.137 48.4029 349.694 47.8997 349.421C47.3984 349.148 46.6011 349.011 45.5062 349.011C43.8691 349.011 42.8308 349.221 42.3896 349.643C41.9465 350.065 41.7304 350.792 41.7408 351.824L39.4377 351.824C39.4378 350.695 39.2341 349.948 38.8268 349.585C38.4211 349.222 37.5991 349.039 36.3658 349.039C35.3419 349.039 34.6012 349.152 34.1442 349.378C33.6869 349.603 33.4583 349.977 33.4582 350.498C33.4581 351.077 33.6884 351.47 34.1508 351.676C34.6133 351.883 35.3414 351.991 36.3335 352.001L36.3331 354.429C34.4268 354.409 33.0857 354.081 32.3133 353.444C31.541 352.807 31.1531 351.813 31.1533 350.46C31.1536 349.029 31.5559 347.997 32.3604 347.365C33.1648 346.734 34.4705 346.418 36.2795 346.418C37.736 346.418 38.7315 346.565 39.263 346.857C39.7962 347.151 40.2373 347.655 40.5898 348.37Z" fill="#231F20"/>
<path d="M0.046897 346.175L0.046897 346.875L15.0252 346.875L15.0252 346.175L0.046897 346.175Z" fill="#190206"/>
<path d="M0.0476294 341.358L0.0476294 342.057L15.026 342.057L15.026 341.358L0.0476294 341.358Z" fill="#190206"/>
<path d="M0.0483618 336.54L0.0483618 337.239L15.0267 337.239L15.0267 336.54L0.0483618 336.54Z" fill="#190206"/>
<path d="M0.0490942 331.722L0.0490943 332.421L15.0274 332.421L15.0274 331.722L0.0490942 331.722Z" fill="#190206"/>
<path d="M0.0500708 326.905L0.0500708 327.604L23.0639 327.604L23.0639 326.905L0.0500708 326.905Z" fill="#190206"/>
<path d="M0.0508032 322.086L0.0508032 322.786L15.0292 322.786L15.0292 322.086L0.0508032 322.086Z" fill="#190206"/>
<path d="M0.0515356 317.268L0.0515357 317.968L15.0299 317.968L15.0299 317.268L0.0515356 317.268Z" fill="#190206"/>
<path d="M0.052268 312.451L0.0522681 313.15L15.0306 313.15L15.0306 312.451L0.052268 312.451Z" fill="#190206"/>
<path d="M0.0532446 307.633L0.0532446 308.332L15.0316 308.332L15.0316 307.633L0.0532446 307.633Z" fill="#190206"/>
<path d="M0.053977 301.956L0.0539771 303.355L27.6371 303.355L27.6371 301.956L0.053977 301.956Z" fill="#190206"/>
<path d="M45.3941 297.153L45.394 298.189L45.4241 298.219L50.7251 298.22L50.7247 300.708L45.3936 300.707L45.3928 305.682L42.9991 305.682L31.2676 300.556L31.268 298.217L43.0889 298.218L43.0891 297.152L45.3941 297.153ZM43.0885 300.677L36.2143 300.676L36.2392 300.735L43.088 303.713L43.0885 300.677Z" fill="#231F20"/>
<path d="M0.0549536 296.998L0.0549536 297.698L15.0333 297.698L15.0333 296.998L0.0549536 296.998Z" fill="#190206"/>
<path d="M0.055686 292.181L0.055686 292.88L15.034 292.88L15.034 292.181L0.055686 292.181Z" fill="#190206"/>
<path d="M0.0564184 287.363L0.0564185 288.062L15.0348 288.062L15.0348 287.363L0.0564184 287.363Z" fill="#190206"/>
<path d="M0.0571509 282.545L0.0571509 283.244L15.0355 283.244L15.0355 282.545L0.0571509 282.545Z" fill="#190206"/>
<path d="M0.0581274 277.728L0.0581275 278.427L23.0719 278.427L23.0719 277.728L0.0581274 277.728Z" fill="#190206"/>
<path d="M0.0588598 272.909L0.0588599 273.609L15.0372 273.609L15.0372 272.909L0.0588598 272.909Z" fill="#190206"/>
<path d="M0.0595923 268.091L0.0595923 268.791L15.0379 268.791L15.0379 268.091L0.0595923 268.091Z" fill="#190206"/>
<path d="M0.0603247 263.274L0.0603247 263.973L15.0387 263.973L15.0387 263.274L0.0603247 263.274Z" fill="#190206"/>
<path d="M0.0613013 258.456L0.0613013 259.155L15.0397 259.155L15.0397 258.456L0.0613013 258.456Z" fill="#190206"/>
<path d="M0.0620336 252.779L0.0620337 254.178L27.6452 254.178L27.6452 252.779L0.0620336 252.779Z" fill="#190206"/>
<path d="M33.8966 248.181L33.8959 252.465L38.2488 253.074C38.5489 249.842 40.4802 248.227 44.0397 248.227C46.0363 248.228 47.6876 248.751 48.9968 249.798C50.3039 250.844 50.9594 252.158 50.9591 253.737C50.9589 254.665 50.6417 255.687 50.009 256.802L47.7502 256.074C47.7803 255.995 47.8458 255.872 47.9469 255.703C48.2871 255.07 48.4572 254.486 48.4573 253.952C48.4575 252.992 48.0838 252.235 47.331 251.68C46.5799 251.126 45.5435 250.849 44.2199 250.848C43.0081 250.848 42.078 251.133 41.4311 251.702C40.7843 252.271 40.4618 253.091 40.4616 254.16C40.4616 254.536 40.5413 255.086 40.7022 255.809L31.5161 254.43L31.5172 248.181L33.8966 248.181Z" fill="#231F20"/>
<path d="M0.0630102 247.821L0.0630103 248.521L15.0414 248.521L15.0414 247.821L0.0630102 247.821Z" fill="#190206"/>
<path d="M0.0637427 243.004L0.0637427 243.703L15.0421 243.703L15.0421 243.004L0.0637427 243.004Z" fill="#190206"/>
<path d="M0.0644751 238.186L0.0644751 238.885L15.0428 238.885L15.0428 238.186L0.0644751 238.186Z" fill="#190206"/>
<path d="M0.0652075 233.368L0.0652075 234.067L15.0436 234.067L15.0436 233.368L0.0652075 233.368Z" fill="#190206"/>
<path d="M0.0661841 228.551L0.0661841 229.251L23.08 229.251L23.08 228.551L0.0661841 228.551Z" fill="#190206"/>
<path d="M0.0669165 223.732L0.0669165 224.432L15.0453 224.432L15.0453 223.732L0.0669165 223.732Z" fill="#190206"/>
<path d="M0.0676489 218.914L0.0676489 219.614L15.046 219.614L15.046 218.914L0.0676489 218.914Z" fill="#190206"/>
<path d="M0.0683813 214.097L0.0683814 214.796L15.0467 214.796L15.0467 214.097L0.0683813 214.097Z" fill="#190206"/>
<path d="M0.0693579 209.279L0.0693579 209.978L15.0477 209.978L15.0477 209.279L0.0693579 209.279Z" fill="#190206"/>
<path d="M0.0700903 203.602L0.0700903 205.001L27.6533 205.001L27.6533 203.602L0.0700903 203.602Z" fill="#190206"/>
<path d="M39.0595 203.852C38.7849 203.29 38.6468 202.798 38.6468 202.374C38.647 201.271 39.0495 200.399 39.854 199.759C40.6583 199.119 42.2228 198.799 44.5438 198.799C46.9355 198.799 48.6044 199.155 49.5505 199.866C50.4947 200.577 50.9675 201.688 50.9673 203.198C50.967 204.62 50.4743 205.654 49.4892 206.3C48.5041 206.947 46.9413 207.27 44.7993 207.27C43.4333 207.269 42.2852 207.198 41.355 207.055C40.425 206.911 39.4666 206.664 38.4762 206.314C37.4859 205.963 36.3839 205.499 35.1686 204.922L31.5244 203.161L31.5249 200.322L36.2107 202.611L39.0595 203.852ZM44.8299 204.56C46.2473 204.56 47.2518 204.451 47.84 204.234C48.4283 204.018 48.7224 203.603 48.7225 202.991C48.7226 201.974 47.6722 201.465 45.5691 201.465L45.3282 201.494L45.011 201.494L44.3626 201.465L44.0596 201.465C42.7824 201.464 41.9584 201.615 41.5863 201.915C41.2141 202.217 41.0281 202.565 41.028 202.96C41.0279 203.582 41.2564 204.008 41.7134 204.241C42.1705 204.473 42.9537 204.589 44.0591 204.589L44.332 204.56L44.8299 204.56Z" fill="#231F20"/>
<path d="M0.0710669 198.644L0.0710669 199.344L15.0494 199.344L15.0494 198.644L0.0710669 198.644Z" fill="#190206"/>
<path d="M0.0717993 193.827L0.0717993 194.526L15.0501 194.526L15.0501 193.827L0.0717993 193.827Z" fill="#190206"/>
<path d="M0.0725317 189.008L0.0725318 189.708L15.0509 189.708L15.0509 189.008L0.0725317 189.008Z" fill="#190206"/>
<path d="M0.0742407 179.374L0.0742407 180.073L23.088 180.073L23.088 179.374L0.0742407 179.374Z" fill="#190206"/>
<path d="M0.0749731 174.555L0.0749732 175.255L15.0533 175.255L15.0533 174.555L0.0749731 174.555Z" fill="#190206"/>
<path d="M2.19562e-05 184.136L2.19868e-05 184.836L14.9784 184.836L14.9784 184.136L2.19562e-05 184.136Z" fill="#190206"/>
<path d="M0.0757056 169.737L0.0757056 170.437L15.054 170.437L15.054 169.737L0.0757056 169.737Z" fill="#190206"/>
<path d="M0.076438 164.92L0.076438 165.619L15.0548 165.619L15.0548 164.92L0.076438 164.92Z" fill="#190206"/>
<path d="M0.0774145 160.102L0.0774146 160.801L15.0558 160.801L15.0558 160.102L0.0774145 160.102Z" fill="#190206"/>
<path d="M0.0781469 154.425L0.078147 155.824L27.6613 155.824L27.6613 154.425L0.0781469 154.425Z" fill="#190206"/>
<path d="M31.5636 149.042L50.7488 154.479L50.7182 156.968L33.9425 152.198L33.9417 157.261L31.5623 157.261L31.5636 149.042Z" fill="#231F20"/>
<path d="M0.0791235 149.467L0.0791235 150.167L15.0575 150.167L15.0575 149.467L0.0791235 149.467Z" fill="#190206"/>
<path d="M0.0798559 144.65L0.079856 145.349L15.0582 145.349L15.0582 144.65L0.0798559 144.65Z" fill="#190206"/>
<path d="M0.0805884 139.832L0.0805884 140.531L15.0589 140.531L15.0589 139.832L0.0805884 139.832Z" fill="#190206"/>
<path d="M0.0813208 135.014L0.0813208 135.713L15.0597 135.713L15.0597 135.014L0.0813208 135.014Z" fill="#190206"/>
<path d="M0.0822973 130.197L0.0822974 130.897L23.0961 130.897L23.0961 130.197L0.0822973 130.197Z" fill="#190206"/>
<path d="M0.0830298 125.378L0.0830298 126.078L15.0614 126.078L15.0614 125.378L0.0830298 125.378Z" fill="#190206"/>
<path d="M0.0837622 120.56L0.0837622 121.26L15.0621 121.26L15.0621 120.56L0.0837622 120.56Z" fill="#190206"/>
<path d="M0.0844946 115.743L0.0844946 116.442L15.0628 116.442L15.0628 115.743L0.0844946 115.743Z" fill="#190206"/>
<path d="M0.0854712 110.925L0.0854712 111.624L15.0638 111.624L15.0638 110.925L0.0854712 110.925Z" fill="#190206"/>
<path d="M0.0862036 105.248L0.0862036 106.647L27.6694 106.647L27.6694 105.248L0.0862036 105.248Z" fill="#190206"/>
<path d="M40.3659 102.932C40.8285 102.034 41.4487 101.415 42.2283 101.074C43.0079 100.734 44.0958 100.564 45.4936 100.564C47.4142 100.564 48.8085 100.897 49.6783 101.564C50.548 102.23 50.9838 103.304 50.9835 104.785C50.9831 107.559 49.1421 108.946 45.4621 108.945C43.9846 108.945 42.8666 108.752 42.1066 108.367C41.3485 107.982 40.7868 107.365 40.4256 106.516C40.0446 107.247 39.5644 107.762 38.9867 108.063C38.409 108.364 37.4684 108.515 36.1643 108.515C34.4564 108.514 33.2144 108.226 32.4367 107.647C31.659 107.07 31.2693 106.144 31.2696 104.871C31.2698 103.508 31.6367 102.511 32.3704 101.88C33.1021 101.248 34.2663 100.932 35.8643 100.932C37.2587 100.933 38.2685 101.084 38.8903 101.385C39.5122 101.686 40.0045 102.201 40.3659 102.932ZM48.7086 104.666C48.7087 103.698 47.6671 103.215 45.5853 103.214C44.1555 103.214 43.1404 103.318 42.5361 103.525C41.9319 103.732 41.6308 104.132 41.6307 104.724C41.6306 105.287 41.8769 105.68 42.3693 105.901C42.8635 106.124 43.6785 106.235 44.8142 106.235C46.2334 106.235 47.2379 106.129 47.8262 105.918C48.4144 105.705 48.7085 105.288 48.7086 104.666ZM39.3717 104.783C39.3718 104.25 39.1309 103.88 38.649 103.672C38.1672 103.465 37.3699 103.361 36.2537 103.361C35.3006 103.361 34.6113 103.465 34.1843 103.672C33.7572 103.879 33.5429 104.229 33.5428 104.723C33.5427 105.266 33.7551 105.633 34.1769 105.827C34.5986 106.019 35.316 106.115 36.3295 106.115C37.4244 106.116 38.2039 106.019 38.6717 105.828C39.1376 105.634 39.3716 105.287 39.3717 104.783Z" fill="#231F20"/>
<path d="M0.0871802 100.29L0.0871802 100.99L15.0655 100.99L15.0655 100.29L0.0871802 100.29Z" fill="#190206"/>
<path d="M0.0879126 95.4726L0.0879126 96.1724L15.0662 96.1724L15.0662 95.4726L0.0879126 95.4726Z" fill="#190206"/>
<path d="M0.088645 90.6547L0.088645 91.3543L15.067 91.3542L15.067 90.6547L0.088645 90.6547Z" fill="#190206"/>
<path d="M0.0896216 85.8369L0.0896216 86.5366L15.068 86.5366L15.068 85.8369L0.0896216 85.8369Z" fill="#190206"/>
<path d="M0.090354 81.02L0.090354 81.7197L23.1041 81.7197L23.1041 81.02L0.090354 81.02Z" fill="#190206"/>
<path d="M0.0910864 76.2012L0.0910864 76.9009L15.0694 76.9009L15.0694 76.2012L0.0910864 76.2012Z" fill="#190206"/>
<path d="M0.0918188 71.3835L0.0918189 72.083L15.0702 72.083L15.0702 71.3835L0.0918188 71.3835Z" fill="#190206"/>
<path d="M0.0925513 66.5657L0.0925513 67.2654L15.0709 67.2654L15.0709 66.5657L0.0925513 66.5657Z" fill="#190206"/>
<path d="M0.0935278 61.7479L0.0935278 62.4475L15.0719 62.4475L15.0719 61.7479L0.0935278 61.7479Z" fill="#190206"/>
<path d="M0.0942602 56.0712L0.0942603 57.4705L27.6774 57.4705L27.6774 56.0712L0.0942602 56.0712Z" fill="#190206"/>
<path d="M43.2371 54.7025C43.4867 55.4038 43.6106 55.9569 43.6106 56.362C43.6104 57.3689 43.2029 58.1834 42.3842 58.8061C41.5655 59.4278 40.072 59.7386 37.9034 59.7383C36.2166 59.738 34.9464 59.6193 34.0925 59.3823C33.2404 59.1452 32.5617 58.7035 32.0604 58.0561C31.5591 57.4097 31.3077 56.5535 31.3079 55.4872C31.3081 54.036 31.7672 52.9794 32.6869 52.3183C33.6048 51.6574 35.4048 51.3267 38.0854 51.3272C39.8926 51.3274 41.4535 51.5072 42.768 51.8654C44.0843 52.2236 45.6167 52.8448 47.3689 53.7277C49.121 54.6103 50.2529 55.1602 50.765 55.3789L50.7646 58.1558L49.8168 57.6966C46.2932 56.0166 44.0998 55.019 43.2371 54.7025ZM37.4384 53.9481L37.0451 53.9481C34.7364 53.9477 33.583 54.478 33.5828 55.539L33.5828 55.5991C33.5827 56.1348 33.8237 56.5163 34.3055 56.7447C34.7873 56.973 35.5652 57.0872 36.6387 57.0874C38.3451 57.0877 39.5427 56.9991 40.2301 56.8204C40.9176 56.6421 41.2613 56.2152 41.2614 55.5402C41.2615 54.7771 40.9658 54.3206 40.374 54.1716C39.7823 54.0234 38.8026 53.9484 37.4384 53.9481Z" fill="#231F20"/>
<path d="M0.0952368 51.1135L0.0952368 51.813L15.0736 51.813L15.0736 51.1135L0.0952368 51.1135Z" fill="#190206"/>
<path d="M0.0959692 46.2956L0.0959693 46.9954L15.0743 46.9954L15.0743 46.2956L0.0959692 46.2956Z" fill="#190206"/>
<path d="M0.0967016 41.4778L0.0967017 42.1775L15.075 42.1775L15.075 41.4778L0.0967016 41.4778Z" fill="#190206"/>
<path d="M0.0976782 36.6597L0.0976782 37.3594L15.076 37.3594L15.076 36.6597L0.0976782 36.6597Z" fill="#190206"/>
<path d="M0.0984106 31.8432L0.0984107 32.5427L23.1122 32.5427L23.1122 31.8432L0.0984106 31.8432Z" fill="#190206"/>
<path d="M0.099143 27.0244L0.0991431 27.7241L15.0775 27.7241L15.0775 27.0244L0.099143 27.0244Z" fill="#190206"/>
<path d="M0.0998755 22.2063L0.0998755 22.906L15.0782 22.906L15.0782 22.2063L0.0998755 22.2063Z" fill="#190206"/>
<path d="M0.100608 17.3887L0.100608 18.0884L15.0789 18.0884L15.0789 17.3887L0.100608 17.3887Z" fill="#190206"/>
<path d="M0.101584 12.5708L0.101584 13.2705L15.0799 13.2705L15.0799 12.5708L0.101584 12.5708Z" fill="#190206"/>
<path d="M0.102317 6.89413L0.102317 8.29346L27.6855 8.29346L27.6855 6.89412L0.102317 6.89413Z" fill="#190206"/>
<path d="M50.7722 11.0808L50.7718 13.5391L33.618 13.5363L33.6177 15.1948L31.5554 15.1945L31.5561 11.0778L50.7722 11.0808Z" fill="#231F20"/>
<path d="M31.2559 4.30777C31.2561 2.84698 31.9473 1.76356 33.3295 1.05812C34.7097 0.351888 37.2893 -0.000524463 41.0684 5.42525e-05C44.1423 0.000548121 46.263 0.15424 47.4288 0.460156C48.5928 0.766061 49.4803 1.23058 50.0879 1.85261C50.6955 2.47455 51.0001 3.29433 51 4.31089C50.9998 5.36763 50.6347 6.22806 49.9064 6.89519C49.1782 7.56068 48.1753 8.00991 46.8996 8.24153C45.6238 8.4738 43.5138 8.58933 40.5692 8.58887C37.9666 8.58846 36.0956 8.44709 34.9546 8.16641C33.8154 7.88403 32.9138 7.43258 32.2495 6.81065C31.5869 6.1885 31.2557 5.36448 31.2559 4.33735L31.2559 4.30777ZM39.454 2.6949L38.7754 2.69479C37.2888 2.69458 36.2843 2.72678 35.7618 2.79026C35.239 2.85453 34.7411 3.01992 34.268 3.28643C33.7966 3.55302 33.5593 3.9032 33.5592 4.33769C33.5591 4.96926 33.9771 5.3945 34.8116 5.61156C35.6461 5.82856 37.0227 5.93771 38.9415 5.93803L39.5597 5.93811L40.2081 5.90859L40.8866 5.9087L42.515 5.93855L42.981 5.93862C45.0325 5.93894 46.4961 5.83549 47.3766 5.62827C48.2554 5.42115 48.6948 4.98221 48.6949 4.31052C48.695 3.86627 48.5091 3.52579 48.137 3.28867C47.765 3.05161 47.1946 2.8983 46.4273 2.82931C45.6584 2.76045 43.8708 2.72536 41.0679 2.7249L40.2688 2.72475L39.454 2.6949Z" fill="#231F20"/>
<path d="M31.1748 498.719C31.175 497.258 31.8662 496.175 33.2484 495.469C34.6286 494.763 37.2082 494.411 40.9873 494.411C44.0612 494.412 46.1819 494.565 47.3478 494.871C48.5117 495.177 49.3992 495.642 50.0068 496.264C50.6144 496.886 50.919 497.705 50.9189 498.722C50.9187 499.779 50.5536 500.639 49.8253 501.306C49.0971 501.972 48.0942 502.421 46.8185 502.653C45.5427 502.885 43.4328 503 40.4881 503C37.8855 503 36.0145 502.858 34.8736 502.578C33.7344 502.295 32.8327 501.844 32.1684 501.222C31.5058 500.6 31.1746 499.776 31.1748 498.748L31.1748 498.719ZM39.3729 497.106L38.6943 497.106C37.2078 497.106 36.2032 497.138 35.6807 497.201C35.1579 497.266 34.66 497.431 34.1869 497.698C33.7156 497.964 33.4782 498.314 33.4782 498.749C33.478 499.38 33.8961 499.806 34.7305 500.023C35.565 500.24 36.9416 500.349 38.8604 500.349L39.4787 500.349L40.1271 500.32L40.8055 500.32L42.4339 500.35L42.8999 500.35C44.9514 500.35 46.4151 500.247 47.2955 500.039C48.1744 499.832 48.6137 499.393 48.6138 498.722C48.6139 498.277 48.428 497.937 48.0559 497.7C47.6839 497.463 47.1135 497.309 46.3463 497.24C45.5773 497.172 43.7897 497.136 40.9869 497.136L40.1878 497.136L39.3729 497.106Z" fill="#231F20"/>
</g>
<defs>
<clipPath id="clip0_1_715">
<rect width="503" height="51" fill="white" transform="translate(2.19868e-05 503) rotate(-90)"/>
</clipPath>
</defs>
</svg>
